<?xml version="1.0"?>
<svg xmlns="http://www.w3.org/2000/svg" xmlns:xlink="http://www.w3.org/1999/xlink" xmlns:svgjs="http://svgjs.com/svgjs" version="1.1" width="512" height="512" x="0" y="0" viewBox="0 0 512 512" style="enable-background:new 0 0 512 512" xml:space="preserve" class=""><g><g xmlns="http://www.w3.org/2000/svg"><path d="m63.644 366.183c-35.094 0-63.644 28.55-63.644 63.643 0 35.094 28.55 63.645 63.644 63.645s63.644-28.551 63.644-63.645c-.001-35.093-28.551-63.643-63.644-63.643z" fill="#457ca0" data-original="#000000" style=""/><path d="m451.849 366.282-64.371-347.753h-80.426v30h55.469l43.065 232.646-53.575 98.251h-209.474c9.333 14.559 14.75 31.858 14.75 50.399 0 14.95-3.527 29.089-9.784 41.639h188.491l78.251-143.508 8.108 43.803c-22.162 9.964-37.641 32.235-37.641 58.066 0 35.094 28.551 63.645 63.644 63.645s63.644-28.55 63.644-63.644c0-33.92-26.677-61.723-60.151-63.544z" fill="#457ca0" data-original="#000000" style=""/></g></g></svg>
